<svg width="512" height="512" viewBox="0 0 512 512" fill="none" xmlns="http://www.w3.org/2000/svg">
<g id="favicon">
<g id="Badge-colored">
<path id="Fill-8418" fill-rule="evenodd" clip-rule="evenodd" d="M256.181 451.45C249.651 451.45 243.207 449.337 237.958 445.492L133.984 377.826C133.652 377.611 133.332 377.383 133.018 377.143C102.571 353.726 86.8364 315.708 91.9535 277.928C95.5856 251.101 100.022 214.423 103.937 182.063C106.948 157.155 109.55 135.641 111.205 123.435C113.188 108.78 125.407 97.7025 140.26 97.095C195.591 94.8251 224.711 77.689 237.141 67.6756C242.483 63.3699 249.219 61 256.107 61C263.064 61 269.898 63.4076 275.349 67.7794C287.791 77.7569 316.905 94.8346 372.119 97.095C386.961 97.7044 399.172 108.778 401.155 123.428C402.808 135.628 405.406 157.124 408.418 182.013C412.333 214.388 416.771 251.081 420.405 277.919C425.522 315.706 409.787 353.728 379.34 377.143C379.028 377.383 378.706 377.611 378.376 377.826L274.4 445.49C269.151 449.337 262.709 451.45 256.181 451.45Z" fill="#009CE1"/>
<path id="N" fill-rule="evenodd" clip-rule="evenodd" d="M195.172 187.134H231.824L270.36 240.96V187.134H314.133V326.829H277.272L238.945 273.213V326.829H195.172V187.134ZM220.095 310.074V213.314L289.21 310.074H294.655V203.889H289.21V300.65L220.095 203.889H214.65V310.074H220.095Z" fill="white"/>
</g>
</g>
</svg>
